<svg width="59" height="47" viewBox="0 0 59 47" fill="none" xmlns="http://www.w3.org/2000/svg">
<g clip-path="url(#clip0)">
<path d="M4.48761 39.2778C4.71749 39.5634 4.83995 39.9212 4.83353 40.2884C4.84526 40.528 4.80317 40.7671 4.71039 40.988C4.6176 41.209 4.47649 41.4062 4.29751 41.565C3.85092 41.9037 3.29766 42.0692 2.7393 42.0313H-3.05176e-05V35.6263H2.6832C3.21286 35.5909 3.7383 35.7413 4.16973 36.0518C4.34302 36.1974 4.48023 36.3815 4.57055 36.5895C4.66087 36.7974 4.70182 37.0236 4.69018 37.2502C4.70592 37.6035 4.5954 37.9509 4.37853 38.2296C4.17034 38.4841 3.88262 38.6605 3.56203 38.7302C3.92545 38.7968 4.25349 38.9909 4.48761 39.2778ZM1.27458 38.3109H2.42143C2.68207 38.3303 2.94094 38.2548 3.15067 38.0982C3.23678 38.0198 3.30377 37.9226 3.34646 37.8141C3.38915 37.7056 3.4064 37.5887 3.39686 37.4724C3.40496 37.3565 3.38735 37.2403 3.34532 37.1321C3.30329 37.0239 3.23787 36.9264 3.15378 36.8466C2.93778 36.6856 2.67087 36.6088 2.40273 36.6307H1.27458V38.3109ZM3.26286 40.7672C3.3549 40.6869 3.42726 40.5865 3.47429 40.4736C3.52131 40.3607 3.54174 40.2385 3.53399 40.1163C3.54101 39.9928 3.51964 39.8693 3.47155 39.7554C3.42346 39.6414 3.34992 39.5401 3.25662 39.4593C3.03225 39.2922 2.75629 39.2102 2.47752 39.2277H1.27458V40.9893H2.4931C2.76737 41.0052 3.03886 40.9269 3.26286 40.7672Z" fill="#AFB1B8"/>
<path d="M9.97251 42.0313L8.47974 39.5281H7.91879V42.0313H6.63483V35.6263H9.06563C9.67835 35.5834 10.2841 35.7783 10.7578 36.1708C11.0976 36.5184 11.3026 36.9764 11.3357 37.4624C11.3689 37.9483 11.228 38.4301 10.9386 38.821C10.6387 39.1659 10.229 39.3959 9.77929 39.4718L11.3687 42.0313H9.97251ZM7.91879 38.6552H8.96902C9.69826 38.6552 10.0629 38.3318 10.0629 37.6852C10.0703 37.5531 10.0503 37.421 10.0042 37.2971C9.95806 37.1732 9.88678 37.0603 9.79487 36.9655C9.56442 36.7731 9.26763 36.6798 8.96902 36.7058H7.90632L7.91879 38.6552Z" fill="#AFB1B8"/>
<path d="M16.9907 40.742H14.4321L13.9802 42.0311H12.6339L14.9837 35.6981H16.4391L18.7795 42.0311H17.4332L16.9907 40.742ZM16.6479 39.772L15.713 37.0686L14.778 39.772H16.6479Z" fill="#AFB1B8"/>
<path d="M25.7758 42.0312H24.5012L21.6435 37.6757V42.0312H20.372V35.6262H21.6435L24.5012 40.0068V35.6262H25.7758V42.0312Z" fill="#AFB1B8"/>
<path d="M33.0496 40.4981C32.786 40.9817 32.3845 41.375 31.8965 41.6276C31.3416 41.909 30.7259 42.0477 30.1045 42.0313H27.8358V35.6263H30.1045C30.7248 35.61 31.3398 35.7453 31.8965 36.0206C32.3844 36.2674 32.7864 36.6569 33.0496 37.1376C33.3119 37.6585 33.4486 38.2341 33.4486 38.8178C33.4486 39.4016 33.3119 39.9772 33.0496 40.4981ZM31.5911 40.3448C31.9548 39.9193 32.1548 39.377 32.1548 38.8163C32.1548 38.2555 31.9548 37.7133 31.5911 37.2878C31.1514 36.9024 30.578 36.7067 29.9955 36.7433H29.1104V40.8892H29.9955C30.578 40.9258 31.1514 40.7302 31.5911 40.3448Z" fill="#AFB1B8"/>
<path d="M17.7885 0C17.7885 0 34.24 6.236 33.891 15.2599V30.5229C33.891 30.5229 17.4519 24.2838 17.7947 15.2599L17.7885 0Z" fill="#AFB1B8"/>
<path d="M48.5475 26.9496C51.6545 24.8028 55.2484 23.4731 59 23.0822V18.3043C54.6773 19.977 51.0102 23.0101 48.5475 26.9496Z" fill="#AFB1B8"/>
<path d="M46.6808 28.389C49.2238 23.2478 53.6325 19.2805 59 17.3032V3.53577C59 3.53577 35.5707 12.4189 36.0663 25.2695V47C36.0663 47 37.1103 46.6027 38.7526 45.858C38.7526 45.1633 38.7526 44.4625 38.8274 43.7584C39.3123 37.7926 42.1371 32.2643 46.6808 28.389Z" fill="#AFB1B8"/>
<path d="M44.4525 36.4617C44.5756 34.9546 44.8502 33.4639 45.2722 32.0123C42.443 35.3589 40.7296 39.5117 40.3731 43.8867C40.3389 44.2997 40.3202 44.7127 40.3108 45.1383C41.6415 44.4968 43.1904 43.6958 44.8172 42.754C44.402 40.6842 44.2793 38.5659 44.4525 36.4617Z" fill="#AFB1B8"/>
<path d="M45.3844 36.54C45.2284 38.4437 45.3258 40.3599 45.6742 42.2378C52.0753 38.3923 59.268 32.4504 58.9906 25.2695V24.6437C54.4173 25.1575 50.1385 27.1648 46.8117 30.3571C46.0328 32.3355 45.5517 34.4193 45.3844 36.54Z" fill="#AFB1B8"/>
</g>
<defs>
<clipPath id="clip0">
<rect width="59" height="47" fill="white"/>
</clipPath>
</defs>
</svg>
